<svg width="106" height="43" viewBox="0 0 106 43" fill="none" xmlns="http://www.w3.org/2000/svg">
<path d="M33.4668 12.5957C34.5482 12.5957 35.5651 12.7891 36.5176 13.1758C37.4701 13.5625 38.2865 14.0924 38.9668 14.7656C39.6471 15.4316 40.1842 16.2409 40.5781 17.1934C40.972 18.1387 41.1689 19.152 41.1689 20.2334C41.1689 21.3291 40.972 22.3604 40.5781 23.3271C40.1842 24.2868 39.6471 25.1104 38.9668 25.7979C38.2865 26.4782 37.4701 27.0153 36.5176 27.4092C35.5651 27.8031 34.5482 28 33.4668 28H28.4072V12.5957H33.4668ZM33.6387 25.54C35.0352 25.54 36.1989 25.0352 37.1299 24.0254C38.0609 23.0156 38.5264 21.7516 38.5264 20.2334C38.5264 18.7295 38.0645 17.4941 37.1406 16.5273C36.2168 15.5534 35.0495 15.0664 33.6387 15.0664H30.9854V25.54H33.6387ZM48.1191 12.3809C49.1003 12.3809 50.085 12.5921 51.0732 13.0146C52.0615 13.43 52.8206 13.9528 53.3506 14.583L51.8574 16.5811C51.3418 16.0511 50.7295 15.6322 50.0205 15.3242C49.3187 15.0163 48.6204 14.8623 47.9258 14.8623C47.2168 14.8623 46.6367 15.0234 46.1855 15.3457C45.7415 15.668 45.5195 16.0869 45.5195 16.6025C45.5195 16.9535 45.6126 17.2614 45.7988 17.5264C45.985 17.7842 46.2357 17.999 46.5508 18.1709C46.873 18.3356 47.2383 18.486 47.6465 18.6221C48.0547 18.7581 48.4844 18.8906 48.9355 19.0195C49.3939 19.1484 49.8486 19.2881 50.2998 19.4385C50.7581 19.5889 51.1914 19.7786 51.5996 20.0078C52.0078 20.237 52.3695 20.502 52.6846 20.8027C53.0068 21.1035 53.2611 21.4902 53.4473 21.9629C53.6335 22.4284 53.7266 22.9583 53.7266 23.5527C53.7266 24.1686 53.5977 24.7594 53.3398 25.3252C53.0892 25.8838 52.7311 26.3779 52.2656 26.8076C51.8073 27.2373 51.2272 27.5811 50.5254 27.8389C49.8236 28.0895 49.0573 28.2148 48.2266 28.2148C47.0807 28.2148 45.9492 27.9678 44.832 27.4736C43.722 26.9795 42.8232 26.3493 42.1357 25.583L43.79 23.6924C44.4632 24.3369 45.1507 24.8382 45.8525 25.1963C46.5615 25.5544 47.3529 25.7334 48.2266 25.7334C49.0788 25.7334 49.7663 25.5365 50.2891 25.1426C50.819 24.7415 51.084 24.2188 51.084 23.5742C51.084 23.2376 50.9909 22.944 50.8047 22.6934C50.6185 22.4427 50.3678 22.2386 50.0527 22.0811C49.7376 21.9235 49.376 21.7803 48.9678 21.6514C48.5596 21.5225 48.1299 21.4007 47.6787 21.2861C47.2275 21.1644 46.7764 21.0319 46.3252 20.8887C45.8812 20.7454 45.4551 20.5628 45.0469 20.3408C44.6387 20.1188 44.277 19.8574 43.9619 19.5566C43.6468 19.2559 43.3962 18.8727 43.21 18.4072C43.0238 17.9417 42.9307 17.4082 42.9307 16.8066C42.9307 15.5462 43.4176 14.4935 44.3916 13.6484C45.3656 12.8034 46.6081 12.3809 48.1191 12.3809ZM61.4609 25.7334L61.6006 27.8926C61.2497 28.0645 60.8092 28.1504 60.2793 28.1504C59.069 28.1504 58.0915 27.7816 57.3467 27.0439C56.6019 26.2992 56.2295 25.2751 56.2295 23.9717V19.5781H54.167V17.2471H56.2295V14.3574H58.668V17.2471H61.4932V19.5781H58.668V23.8643C58.668 24.473 58.8542 24.96 59.2266 25.3252C59.6061 25.6833 60.0752 25.8623 60.6338 25.8623C60.8988 25.8623 61.1745 25.8193 61.4609 25.7334ZM71.0215 17.2471H73.4814V28H71.0215V26.5498C70.7064 27.0583 70.248 27.4629 69.6465 27.7637C69.0521 28.0645 68.4147 28.2148 67.7344 28.2148C66.3809 28.2148 65.3102 27.7816 64.5225 26.915C63.7347 26.0413 63.3408 24.8561 63.3408 23.3594V17.2471H65.7793V22.9834C65.7793 23.8428 66.012 24.5231 66.4775 25.0244C66.943 25.5257 67.5625 25.7764 68.3359 25.7764C68.873 25.7764 69.3851 25.6403 69.8721 25.3682C70.3662 25.0889 70.7493 24.7201 71.0215 24.2617V17.2471ZM84.1055 12.5957H86.5547V28H84.1055V26.5498C83.819 27.0368 83.3535 27.4378 82.709 27.7529C82.0716 28.0609 81.3949 28.2148 80.6787 28.2148C79.2321 28.2148 78.0075 27.6742 77.0049 26.5928C76.0094 25.5114 75.5117 24.1829 75.5117 22.6074C75.5117 21.0462 76.0094 19.7249 77.0049 18.6436C78.0075 17.5622 79.2321 17.0215 80.6787 17.0215C81.3877 17.0215 82.0645 17.179 82.709 17.4941C83.3535 17.8092 83.819 18.2103 84.1055 18.6973V12.5957ZM81.1836 25.8838C81.7852 25.8838 82.3545 25.7334 82.8916 25.4326C83.4359 25.1318 83.8405 24.7487 84.1055 24.2832V20.9854C83.8405 20.5055 83.4395 20.1152 82.9023 19.8145C82.3652 19.5065 81.7923 19.3525 81.1836 19.3525C80.2598 19.3525 79.4863 19.6641 78.8633 20.2871C78.2402 20.903 77.9287 21.6764 77.9287 22.6074C77.9287 23.5384 78.2402 24.319 78.8633 24.9492C79.4863 25.5723 80.2598 25.8838 81.1836 25.8838ZM89.2725 12.7139C89.5804 12.4059 89.9492 12.252 90.3789 12.252C90.8086 12.252 91.1774 12.4059 91.4854 12.7139C91.8005 13.0218 91.958 13.387 91.958 13.8096C91.958 14.2464 91.8005 14.6188 91.4854 14.9268C91.1774 15.2347 90.8086 15.3887 90.3789 15.3887C89.9492 15.3887 89.5804 15.2347 89.2725 14.9268C88.9645 14.6188 88.8105 14.2464 88.8105 13.8096C88.8105 13.387 88.9645 13.0218 89.2725 12.7139ZM89.1436 17.2471H91.582V28H89.1436V17.2471ZM95.2236 18.6328C96.2907 17.5586 97.612 17.0215 99.1875 17.0215C100.763 17.0215 102.088 17.5586 103.162 18.6328C104.236 19.707 104.773 21.0391 104.773 22.6289C104.773 24.2188 104.236 25.5472 103.162 26.6143C102.088 27.6813 100.763 28.2148 99.1875 28.2148C97.612 28.2148 96.2907 27.6813 95.2236 26.6143C94.1566 25.5472 93.623 24.2188 93.623 22.6289C93.623 21.0391 94.1566 19.707 95.2236 18.6328ZM101.443 20.3086C100.835 19.6855 100.083 19.374 99.1875 19.374C98.2923 19.374 97.5439 19.6855 96.9424 20.3086C96.3408 20.9316 96.04 21.7051 96.04 22.6289C96.04 23.5456 96.3408 24.3154 96.9424 24.9385C97.5511 25.5544 98.2995 25.8623 99.1875 25.8623C100.083 25.8623 100.835 25.5508 101.443 24.9277C102.052 24.3047 102.356 23.5384 102.356 22.6289C102.356 21.7051 102.052 20.9316 101.443 20.3086Z" fill="white"/>
<mask id="mask0_1_436" style="mask-type:alpha" maskUnits="userSpaceOnUse" x="0" y="0" width="23" height="43">
<rect width="22.8561" height="42.4471" fill="#D9D9D9"/>
</mask>
<g mask="url(#mask0_1_436)">
<path d="M0 9C3.1826 9 6.23484 10.2643 8.48528 12.5147C10.7357 14.7652 12 17.8174 12 21C12 24.1826 10.7357 27.2348 8.48528 29.4853C6.23485 31.7357 3.1826 33 1.81195e-06 33L0 21L0 9Z" fill="white"/>
</g>
</svg>
