<svg width="122" height="49" viewBox="0 0 122 49" fill="none" xmlns="http://www.w3.org/2000/svg">
<mask id="mask0_49_2701" style="mask-type:alpha" maskUnits="userSpaceOnUse" x="0" y="0" width="26" height="49">
<rect width="26" height="48.2857" fill="#D9D9D9"/>
</mask>
<g mask="url(#mask0_49_2701)">
<path d="M1 5.14307C5.7739 5.14307 10.3523 7.09217 13.7279 10.5616C17.1036 14.031 19 18.7366 19 23.6431C19 28.5496 17.1036 33.2551 13.7279 36.7245C10.3523 40.194 5.7739 42.1431 1 42.1431L1 23.6431L1 5.14307Z" fill="black"/>
</g>
<path d="M39.6162 14.938C41.3428 14.938 42.9085 15.3273 44.3135 16.106C45.7269 16.8846 46.8356 17.9637 47.6396 19.3433C48.4437 20.7228 48.8457 22.2632 48.8457 23.9644C48.8457 25.6994 48.4437 27.2694 47.6396 28.6743C46.8356 30.0708 45.7269 31.1668 44.3135 31.9624C42.9085 32.7495 41.3428 33.1431 39.6162 33.1431H33.3828V14.938H39.6162ZM39.8828 29.4487C41.3216 29.4487 42.5107 28.9282 43.4502 27.8872C44.3981 26.8462 44.8721 25.5386 44.8721 23.9644C44.8721 22.4155 44.4023 21.1418 43.4629 20.1431C42.5319 19.1359 41.3385 18.6323 39.8828 18.6323H37.2295V29.4487H39.8828Z" fill="black"/>
<path d="M55.8154 33.397C53.4964 33.397 51.5879 32.8638 50.0898 31.7974L51.1816 29.2456C52.3835 30.1427 53.8223 30.5913 55.498 30.5913C56.0651 30.5913 56.5179 30.494 56.8564 30.2993C57.2035 30.1047 57.377 29.855 57.377 29.5503C57.377 29.2879 57.2458 29.0721 56.9834 28.9028C56.7295 28.7251 56.3994 28.5854 55.9932 28.4839C55.5869 28.3823 55.1383 28.2808 54.6475 28.1792C54.1566 28.0692 53.6657 27.9295 53.1748 27.7603C52.6839 27.5825 52.2354 27.3667 51.8291 27.1128C51.4229 26.8504 51.0885 26.4865 50.8262 26.021C50.5723 25.547 50.4411 24.9927 50.4326 24.3579C50.4157 23.1561 50.8896 22.1489 51.8545 21.3364C52.8193 20.5239 54.0508 20.1177 55.5488 20.1177C57.5716 20.1177 59.1924 20.6043 60.4111 21.5776L59.3701 24.231C58.8623 23.8501 58.2402 23.5327 57.5039 23.2788C56.776 23.0249 56.0736 22.8979 55.3965 22.8979C54.931 22.8979 54.5544 22.9953 54.2666 23.1899C53.9788 23.3846 53.835 23.6258 53.835 23.9136C53.835 24.1336 53.9365 24.3283 54.1396 24.4976C54.3428 24.6584 54.6051 24.7896 54.9268 24.8911C55.2568 24.9927 55.6292 25.1069 56.0439 25.2339C56.4671 25.3524 56.8945 25.4709 57.3262 25.5894C57.7578 25.7078 58.181 25.8729 58.5957 26.0845C59.0189 26.2961 59.3955 26.5373 59.7256 26.8081C60.0557 27.0705 60.3223 27.4175 60.5254 27.8491C60.737 28.2808 60.847 28.7716 60.8555 29.3218C60.8555 30.5067 60.3815 31.4842 59.4336 32.2544C58.4941 33.0161 57.2881 33.397 55.8154 33.397Z" fill="black"/>
<path d="M70.6562 29.7407L70.8467 32.9907C70.3558 33.2277 69.7295 33.3462 68.9678 33.3462C67.4443 33.3462 66.2129 32.8892 65.2734 31.9751C64.3424 31.0526 63.877 29.7788 63.877 28.1538V23.8628H61.5029V20.3716H63.877V17.02H67.5459V20.3716H70.6816V23.8628H67.5459V27.9634C67.5459 28.5474 67.7363 29.0213 68.1172 29.3853C68.498 29.7407 68.9635 29.9185 69.5137 29.9185C69.9368 29.9185 70.3177 29.8592 70.6562 29.7407Z" fill="black"/>
<path d="M81.3076 20.3716H84.9766V33.1431H81.3076V31.6323C80.9437 32.174 80.4486 32.6056 79.8223 32.9272C79.2044 33.2404 78.54 33.397 77.8291 33.397C76.2126 33.397 74.9388 32.8807 74.0078 31.8481C73.0853 30.8156 72.624 29.3937 72.624 27.5825V20.3716H76.293V26.9858C76.293 27.8576 76.513 28.5347 76.9531 29.0171C77.4017 29.4995 78.0068 29.7407 78.7686 29.7407C79.2679 29.7407 79.7461 29.6138 80.2031 29.3599C80.6686 29.0975 81.0368 28.7463 81.3076 28.3062V20.3716Z" fill="black"/>
<path d="M96.7324 14.938H100.401V33.1431H96.7324V31.6323C96.4193 32.1571 95.9115 32.5845 95.209 32.9146C94.515 33.2362 93.766 33.397 92.9619 33.397C91.8701 33.397 90.8672 33.1007 89.9531 32.5083C89.0391 31.9159 88.3197 31.1118 87.7949 30.0962C87.2702 29.0721 87.0078 27.9549 87.0078 26.7446C87.0078 24.8996 87.5833 23.3338 88.7344 22.0474C89.8939 20.7609 91.3031 20.1177 92.9619 20.1177C93.7575 20.1177 94.5065 20.2827 95.209 20.6128C95.9115 20.9429 96.4193 21.366 96.7324 21.8823V14.938ZM93.7744 29.9185C94.3923 29.9185 94.9678 29.7703 95.501 29.4741C96.0426 29.1779 96.4531 28.797 96.7324 28.3315V25.2085C96.4531 24.7261 96.0426 24.3325 95.501 24.0278C94.9678 23.7231 94.3923 23.5708 93.7744 23.5708C92.8773 23.5708 92.124 23.8755 91.5146 24.4849C90.9053 25.0858 90.6006 25.839 90.6006 26.7446C90.6006 27.6502 90.9053 28.4077 91.5146 29.0171C92.124 29.618 92.8773 29.9185 93.7744 29.9185Z" fill="black"/>
<path d="M103.22 14.8491C103.66 14.409 104.185 14.189 104.794 14.189C105.403 14.189 105.928 14.409 106.368 14.8491C106.808 15.2808 107.028 15.797 107.028 16.3979C107.028 17.0073 106.808 17.5321 106.368 17.9722C105.928 18.4123 105.403 18.6323 104.794 18.6323C104.185 18.6323 103.66 18.4123 103.22 17.9722C102.78 17.5321 102.56 17.0073 102.56 16.3979C102.56 15.797 102.78 15.2808 103.22 14.8491ZM102.966 20.3716H106.635V33.1431H102.966V20.3716Z" fill="black"/>
<path d="M115.331 20.1177C116.254 20.1177 117.121 20.2869 117.934 20.6255C118.755 20.964 119.457 21.4295 120.041 22.022C120.633 22.606 121.099 23.3127 121.438 24.1421C121.785 24.9631 121.958 25.839 121.958 26.77C121.958 28.0142 121.666 29.144 121.082 30.1597C120.507 31.1753 119.711 31.9709 118.695 32.5464C117.688 33.1134 116.567 33.397 115.331 33.397C113.444 33.397 111.865 32.7664 110.596 31.5054C109.326 30.2443 108.691 28.6659 108.691 26.77C108.691 24.8742 109.326 23.2915 110.596 22.022C111.865 20.7524 113.444 20.1177 115.331 20.1177ZM115.331 23.6216C114.459 23.6216 113.731 23.922 113.147 24.5229C112.572 25.1154 112.284 25.8644 112.284 26.77C112.284 27.6502 112.572 28.3908 113.147 28.9917C113.731 29.5926 114.459 29.8931 115.331 29.8931C116.186 29.8931 116.905 29.5926 117.489 28.9917C118.073 28.3908 118.365 27.6502 118.365 26.77C118.365 25.8644 118.073 25.1154 117.489 24.5229C116.914 23.922 116.194 23.6216 115.331 23.6216Z" fill="black"/>
</svg>
